#!OML:ASF F:\VICON\USERDATA\INSTALL\rory3\rory3.ASF
:FULLY-SPECIFIED
:DEGREES
64
root 0.5927078133970516 17.912413679123116 33.11336223582275 -3.597716193819994 0.149353634015569 -1.8050596836957213
lfemur -6.709943889855667 -2.917926487824846 -21.59518246589825
ltibia 32.47632871047956
lfoot -17.15543402025532 2.3850430570645864
ltoes -4.022817514652806
rfemur -8.983349095583156 1.8995170146397835 22.630322130417923
rtibia 36.732970987904935
rfoot -0.09584929489478 -8.798803872035059
rtoes 9.4487948222195
lowerback 9.628004950715741 0.4473108380175675 1.4208939596970043
upperback 0.14584677671688398 0.7832639492221352 1.0000148454363145
thorax -5.283499887724692 0.4254469129154186 0.3055407017758468
lowerneck -16.31270660882921 -2.9781877500475975 -1.6698776154012642
upperneck 21.53770075864142 -3.7865140837604017 0.42346560423935914
head 9.615915497822195 -1.8535432021098541 -0.07095947744854145
lclavicle 6.563340694559065e-16 -1.0577713895855822e-16
lhumerus -24.76142631192114 1.2891741629078424 79.2238181867952
lradius 27.548317713206558
lwrist 8.403467752504621
lhand -28.59204683966903 19.82742402508956
lfingers 7.12502
lthumb -1.7012226252303078 50.456248791595655
rclavicle 6.563340694676287e-16 -1.0577713894758614e-16
rhumerus -30.588332915225383 -17.887980961674288 -80.22645049901521
rradius 32.610066338725325
rwrist 1.4163949659231272
rhand -17.597101870492192 22.108083052604727
rfingers 7.12502
rthumb 8.684086683556522 -7.289317383027164
65
root 0.5988699944647847 17.908250701365027 33.7814274279643 -3.703219974322696 -0.25198092667128846 -1.3208165652427784
lfemur -5.276843034381718 -2.756841886222176 -22.11642334299683
ltibia 32.24875774388374
lfoot -17.116527970627082 2.9379003467457174
ltoes -7.276594664879095
rfemur -10.471196682957878 2.049161635930001 22.107945795540754
rtibia 36.207787290988264
rfoot 0.01577668768133833 -8.400030190665333
rtoes 9.794768683867483
lowerback 9.637914413032417 0.324646354301257 0.8465200950612238
upperback 0.12623407115942548 0.4778327619412572 0.9656331899922957
thorax -5.282243391035467 0.2933926987127597 0.6873487751369685
lowerneck -16.331420865905677 -2.9636486282387975 -1.6331261914780164
upperneck 21.648970508501762 -3.7645835314482627 0.3638402074950692
head 9.684690734123354 -1.8420637126175714 -0.11478094683438303
lclavicle 6.563340694485035e-16 -1.0577713896476868e-16
lhumerus -25.18413899181728 1.6957377496159372 79.29480897918445
lradius 27.68727975424902
lwrist 8.092267513934779
lhand -28.636100183555676 19.64745037053738
lfingers 7.12502
lthumb -1.7184758216300415 50.35962418027905
rclavicle 6.563340694657069e-16 -1.0577713894896833e-16
rhumerus -31.121735290434366 -18.51212114477699 -79.63658849352647
rradius 32.68576993499937
rwrist 1.6184757249876522
rhand -17.58838007627427 22.11383441138873
rfingers 7.12502
rthumb 8.681512055022425 -7.273077444380897
66
root 0.6033423148794532 17.894111394939234 34.488700085416475 -3.8878170497319147 -0.6491466755787827 -0.5602495955170934
lfemur -3.1781151734603377 -2.6695422827550397 -22.764112754887545
ltibia 31.482912692930952
lfoot -16.79983035608656 3.386474253266617
ltoes -8.629370628456256
rfemur -12.021154483481766 2.1797100590872613 21.39745636026134
rtibia 35.840979434496425
rfoot -0.014185293523128806 -8.11636034675705
rtoes 9.531948513053946
lowerback 9.674785474947676 0.2168959722673394 0.08725652798119699
upperback 0.11736551937442838 0.20610397977422845 0.8870791802462912
thorax -5.295852984899126 0.14948064453956392 1.0270036989991294
lowerneck -16.34661928108622 -2.948342265124716 -1.6023653315307693
upperneck 21.74923954286178 -3.7387400961785224 0.3293257909117014
head 9.72306208004289 -1.8322370679239646 -0.13055217699724303
lclavicle 6.563340694347329e-16 -1.0577713897646895e-16
lhumerus -25.532901688627305 2.1054073137178286 79.46859374327738
lradius 27.692634397944122
lwrist 7.639532606064735
lhand -28.800152499056665 19.256712117220346
lfingers 7.12502
lthumb -1.9369948010996212 49.81914342872635
rclavicle 6.563340694625473e-16 -1.057771389512761e-16
rhumerus -31.481012315332865 -19.05168509879535 -79.23181554914997
rradius 32.80621845094706
rwrist 1.8796552883445643
rhand -17.603044226585286 22.033680007685128
rfingers 7.12502
rthumb 8.685653064356357 -7.237844054183267
67
root 0.6024845905359039 17.881111756302978 34.92630399303789 -3.8863832190088985 -0.9714830284991551 -0.07749236538313342
lfemur -1.044621780350079 -2.6991931328338903 -23.329224117469902
ltibia 30.459451623839747
lfoot -16.422332416430784 3.542130859026286
ltoes -11.240746114534048
rfemur -13.486291490347325 2.2806126379568896 21.00179614796722
rtibia 35.24433766493548
rfoot -0.020235387749698575 -7.958494118667803
rtoes 9.213126774583994
lowerback 9.632436403903588 0.11693928370077863 -0.4464362761455729
upperback 0.11177612904962826 -0.017539742462923558 0.8435269234000936
thorax -5.322548447738276 0.03453300619806493 1.336142375332666
lowerneck -16.385683730186102 -2.9319898449697446 -1.5699996465545711
upperneck 21.874703335285545 -3.7223577797253933 0.28434900117507345
head 9.789949719472395 -1.8243594761345376 -0.15845444415012228
lclavicle 6.563340694244256e-16 -1.0577713898495799e-16
lhumerus -25.68635318145901 2.372479081946436 79.6968683487894
lradius 27.54343052945878
lwrist 7.286964062721802
lhand -28.797684221390032 18.875400319593773
lfingers 7.12502
lthumb -1.9280071590423022 49.52250301758649
rclavicle 6.563340694589469e-16 -1.0577713895386815e-16
rhumerus -31.576698538687676 -19.301416846381972 -78.94513484416922
rradius 32.93585823788573
rwrist 2.1549045886425557
rhand -17.5376529516151 22.057664859829867
rfingers 7.12502
rthumb 8.721833608919523 -7.251203002227658
68
root 0.6060512109601441 17.87910204643567 35.346838947551674 -3.592994735107446 -1.1598809750967993 -0.027180807165579468
lfemur 0.7228500801913338 -2.7853001551486685 -23.439202257908878
ltibia 29.61915153929892
lfoot -15.903145989818508 3.461694437490623
ltoes -12.591240094644895
rfemur -14.67545637967193 2.3718177414295525 21.02503912682675
rtibia 34.11042387430258
rfoot -0.03798132668474352 -7.897558138762553
rtoes 8.258949175946242
lowerback 9.587506700703159 -0.018319706331488772 -0.6091565046077552
upperback 0.089767672976148 -0.21475420075992224 0.8816381223729786
thorax -5.362757552232521 -0.07211851066130898 1.5752780583181567
lowerneck -16.412973224959355 -2.9162333982520092 -1.5612824909983978
upperneck 21.96491979193044 -3.692938653584489 0.21581267521449232
head 9.828757259097298 -1.8137712993703472 -0.18116722671816662
lclavicle 6.563340694190396e-16 -1.0577713898920805e-16
lhumerus -25.780430871194245 2.231182687573825 79.89653409159003
lradius 27.23833535362929
lwrist 7.297560772601919
lhand -28.782500739048505 19.260505214645967
lfingers 7.12502
lthumb -1.856253841377778 50.065064040369826
rclavicle 6.563340694581183e-16 -1.0577713895413354e-16
rhumerus -31.3900829548969 -19.40981685390836 -78.80545797137391
rradius 33.03855455997457
rwrist 2.625717881491605
rhand -17.514792605979473 22.036150706095185
rfingers 7.12502
rthumb 8.763802686003789 -7.2620779200315075
69
root 0.6152809379650184 17.886745809073165 35.75241116464877 -3.2032806442332458 -1.305034806347917 -0.04449682461858373
lfemur 2.3057116500127623 -2.9397565807890427 -23.504688983503655
ltibia 29.005936291521543
lfoot -15.164080301941624 3.3053597529942307
ltoes -12.580666947109203
rfemur -15.550181760867623 2.4917411543508203 21.202622197419043
rtibia 32.550334986733404
rfoot -0.019512181311865717 -7.780197078763662
rtoes 7.584433960575036
lowerback 9.555058870136593 -0.2153453355879732 -0.7763356890466491
upperback 0.07173634918507865 -0.48524166765293375 0.9392846778902998
thorax -5.372529918441789 -0.20096745193478915 1.859741729953276
lowerneck -16.418365037904525 -2.907737636391982 -1.6062640594831856
upperneck 22.018226380003185 -3.6700991142763466 0.17225387383899937
head 9.845543043307279 -1.8068569016074914 -0.18258626391453206
lclavicle 6.563340694150677e-16 -1.0577713899216888e-16
lhumerus -25.92730086740767 1.9100588685377753 80.06696051801917
lradius 26.769258417394283
lwrist 7.534480641239581
lhand -28.822144675842736 19.88803188351902
lfingers 7.12502
lthumb -1.8312820815877422 50.77693190396669
rclavicle 6.563340694595153e-16 -1.0577713895232019e-16
rhumerus -31.052379378380127 -19.35337462691488 -78.76419361636172
rradius 33.09597770009335
rwrist 2.946306436963249
rhand -17.545968433241924 21.92459355440348
rfingers 7.12502
rthumb 8.668006599468608 -7.582562065016984
70
root 0.6245212347363042 17.887033274889795 36.101142821448846 -3.1293716044858897 -1.62886679126775 0.3747734296184855
lfemur 4.060764346763477 -3.0982336316395886 -24.0267057644833
ltibia 28.556990514720724
lfoot -14.229641592916838 2.8055325393272073
ltoes -12.90231791123012
rfemur -16.44028893657561 2.609715112521954 21.045952721969776
rtibia 31.259708951970758
rfoot 0.054094852268899984 -7.582017540977547
rtoes 8.009817343075047
lowerback 9.569829833743018 -0.4143771068864768 -1.2798440179074233
upperback 0.0935618709420881 -0.8008880369671049 0.9459538504782775
thorax -5.348183252014409 -0.3493781549691073 2.1500727932925923
lowerneck -16.44867968213869 -2.8982920516688706 -1.6437014833352692
upperneck 21.913493747689344 -3.6584958961156455 0.20796224740259772
head 9.821798740363668 -1.800552628866641 -0.1565015268740803
lclavicle 6.563340694190462e-16 -1.0577713898812386e-16
lhumerus -25.916072577534063 1.6092547264816042 80.23174092037769
lradius 26.184755300469135
lwrist 7.445623551604285
lhand -29.00689563487628 19.924349616814823
lfingers 7.12502
lthumb -2.0441690749197434 50.78424881857786
rclavicle 6.563340694570542e-16 -1.0577713895392204e-16
rhumerus -30.730208380687962 -19.206249694105512 -78.49288561848498
rradius 33.09310783969681
rwrist 2.93971266465234
rhand -17.505599512142968 21.94671111669602
rfingers 7.12502
rthumb 8.689911171904365 -7.664182434105706
71
root 0.6348107904933968 17.881081904637643 36.81309624653832 -3.2277437381901537 -1.9873661668962834 1.0289598940860976
lfemur 5.930447312626605 -3.29507441586906 -24.793076791415434
ltibia 28.111164094327826
lfoot -13.060687605033568 1.9952881977507753
ltoes -13.15554443202678
rfemur -17.398288903398427 2.6579719190520956 20.734861468708026
rtibia 30.235726988709825
rfoot -0.013887670444070466 -7.374921724011542
rtoes 8.899309557744065
lowerback 9.606331077374621 -0.5695022865692996 -1.839094878564128
upperback 0.11681486647599934 -1.0646763434285424 0.9325450678205064
thorax -5.3094982440685685 -0.46396252270922644 2.406475023013999
lowerneck -16.451936652124715 -2.891099754927339 -1.7040537278983479
upperneck 21.77072599763468 -3.6481235335541755 0.26297933845634736
head 9.75575956376874 -1.7981453193467136 -0.11393100954810617
lclavicle 6.56334069421438e-16 -1.0577713898543681e-16
lhumerus -25.795967352378177 1.475444665633244 80.4032374742879
lradius 25.480658941303382
lwrist 7.305627542722513
lhand -29.213231718472706 20.053433117895615
lfingers 7.12502
lthumb -2.289276347989821 50.95523515768526
rclavicle 6.563340694555306e-16 -1.0577713895464856e-16
rhumerus -30.608712290297625 -19.31104825733042 -78.0151978927042
rradius 33.07920809763627
rwrist 2.8633568421371365
rhand -17.534292899975455 21.907648919388276
rfingers 7.12502
rthumb 8.68538286116857 -7.732452987973842
